# AST/ASF file generated using VICON BodyLanguage
# -----------------------------------------------
:version 1.10
:name VICON
:units
  mass 1.0
  length 0.45
  angle deg
:documentation
   .ast/.asf automatically generated from VICON data using
   VICON BodyBuilder and BodyLanguage model FoxedUp or BRILLIANT.MOD
:root
   order TX TY TZ RX RY RZ
   axis XYZ
   position 0 0 0  
   orientation 0 0 0 
:bonedata
  begin
     id 1 
     name lhipjoint
     direction 0.627457 -0.725269 0.283342 
     length 2.53237 
     axis 0 0 0  XYZ
  end
  begin
     id 2 
     name lfemur
     direction 0.34202 -0.939693 0  
     length 7.32496  
     axis 0 0 20  XYZ
    dof rx ry rz
    limits (-160.0 20.0)
           (-70.0 70.0)
           (-60.0 70.0)
  end
  begin
     id 3 
     name ltibia
     direction 0.34202 -0.939693 0   
     length 7.69674   
     axis 0 0 20   XYZ
    dof rx
    limits (-10.0 170.0)
  end
  begin
     id 4 
     name lfoot
     direction 0.127289 -0.349722 0.928166   
     length 1.8612   
     axis -90 7.62852e-016 20   XYZ
    dof rx rz
    limits (-45.0 90.0)
           (-70.0 20.0)
  end
  begin
     id 5 
     name ltoes
     direction 1.53561e-011 -4.21864e-011 1   
     length 0.925608   
     axis -90 7.62852e-016 20   XYZ
    dof rx
    limits (-90.0 20.0)
  end
  begin
     id 6 
     name rhipjoint
     direction -0.609094 -0.738725 0.288599   
     length 2.48624  
     axis 0 0 0  XYZ 
  end
  begin
     id 7 
     name rfemur
     direction -0.34202 -0.939693 0   
     length 7.44259   
     axis 0 0 -20   XYZ
    dof rx ry rz
    limits (-160.0 20.0)
           (-70.0 70.0)
           (-70.0 60.0)
  end
  begin
     id 8 
     name rtibia
     direction -0.34202 -0.939693 0   
     length 7.7781   
     axis 0 0 -20   XYZ
    dof rx
    limits (-10.0 170.0)
 end
 begin
     id 9 
     name rfoot
     direction -0.107015 -0.294021 0.949789   
     length 2.14741  
     axis -90 -7.62852e-016 -20   XYZ
    dof rx rz
    limits (-45.0 90.0)
           (-20.0 70.0)
  end
  begin
     id 10 
     name rtoes
     direction -1.53497e-011 -4.21924e-011 1   
     length 1.0706   
     axis -90 -7.62852e-016 -20   XYZ
    dof rx
    limits (-90.0 20.0)
  end
  begin
     id 11 
     name lowerback
     direction -0.0142066 0.998112 -0.0597545   
     length 1.86627   
     axis 0 0 0   XYZ
    dof rx ry rz
    limits (-20.0 45.0)
           (-30.0 30.0)
           (-30.0 30.0)
  end
  begin
     id 12 
     name upperback
     direction 0.00547294 0.999744 0.0219437   
     length 1.86272   
     axis 0 0 0   XYZ
    dof rx ry rz
    limits (-20.0 45.0)
           (-30.0 30.0)
           (-30.0 30.0)
  end
  begin
     id 13 
     name thorax
     direction 0.0116162 0.998704 0.0495538   
     length 1.8703   
     axis 0 0 0   XYZ
    dof rx ry rz
    limits (-20.0 45.0)
           (-30.0 30.0)
           (-30.0 30.0)
  end
  begin
     id 14 
     name lowerneck
     direction -0.0106574 0.998739 0.0490586   
     length 1.8074   
     axis 0 0 0   XYZ
    dof rx ry rz
    limits (-20.0 45.0)
           (-30.0 30.0)
           (-30.0 30.0)
  end
  begin
     id 15 
     name upperneck
     direction 0.030527 0.976587 -0.212944   
     length 1.80681   
     axis 0 0 0   XYZ
    dof rx ry rz
    limits (-20.0 45.0)
           (-30.0 30.0)
           (-30.0 30.0)
  end
  begin
     id 16
     name head
     direction 0.00869225 0.997035 -0.0764531  
     length 1.8313  
     axis 0 0 0   XYZ
    dof rx ry rz
    limits (-20.0 45.0)
           (-30.0 30.0)
           (-30.0 30.0)
  end
  begin
     id 17 
     name lclavicle
     direction 0.915958 0.399447 0.0382386  
     length 3.78965  
     axis 0 0 0   XYZ
    dof ry rz
    limits (-20.0 10.0)
           (0.0 20.0)
  end
  begin
     id 18 
     name lhumerus
     direction 1 -4.48967e-011 3.19303e-027   
     length 4.78095   
     axis -180 -30 -90   XYZ
    dof rx ry rz
    limits (-60.0 90.0)
           (-90.0 90.0)
           (-90.0 90.0)
  end
  begin
     id 19
     name lradius
     direction 1 -4.48967e-011 -3.77974e-027   
     length 3.58615   
     axis -180 -30 -90   XYZ
    dof rx
    limits (-10.0 170.0)
  end
  begin
     id 20
     name lwrist
     direction 1 -4.48927e-011 1.2807e-027   
     length 1.79307   
     axis 1.91374e-015 90 90   XYZ
    dof ry
    limits (-180.0 0.0)
 end
  begin
     id 21 
     name lhand
     direction 1 -4.49036e-011 2.5614e-027   
     length 0.659812   
     axis -1.63439e-015 90 90   XYZ
    dof rx rz
    limits (-90.0 90.0)
           (-45.0 45.0)
  end
  begin
     id 22 
     name lfingers
     direction 1 -4.49052e-011 5.1228e-027   
     length 0.531957   
     axis -3.26879e-015 90 90   XYZ
    dof rx
    limits (0.0 90.0)
  end
  begin
     id 23
     name lthumb
     direction 0.707107 -6.35012e-011 0.707107   
     length 0.763787   
     axis -90 45 2.85299e-015   XYZ
    dof rx rz
    limits (-45.0 45.0)
           (-45.0 45.0)
  end
  begin
     id 24 
     name rclavicle
     direction -0.895351 0.435135 0.0948887   
     length 3.70497  
     axis 0 0 0   XYZ 
    dof ry rz
    limits (-10.0 20.0)
           (-20.0 0.0)
  end
  begin
     id 25 
     name rhumerus
     direction -1 -4.48971e-011 2.38946e-027  
     length 4.48913   
     axis -180 30 90   XYZ
    dof rx ry rz
    limits (-90.0 60.0)
           (-90.0 90.0)
           (-90.0 90.0)
  end
  begin
     id 26 
     name rradius
     direction -1 -4.4895e-011 4.38668e-027   
     length 3.7051   
     axis -180 30 90   XYZ
    dof rx
    limits (-10.0 170.0)
  end
  begin
     id 27 
     name rwrist
     direction -1 -4.49007e-011 1.2807e-027   
     length 1.85255   
     axis 1.91374e-015 -90 -90   XYZ
    dof ry
    limits (-180.0 0.0)
  end
  begin
     id 28
     name rhand
     direction -1 -4.48851e-011 2.5614e-027   
     length 0.449136   
     axis -1.63439e-015 -90 -90   XYZ
    dof rx rz
    limits (-90.0 90.0)
           (-45.0 45.0)
  end
  begin
     id 29
     name rfingers
     direction -1 -4.49128e-011 5.1228e-027   
     length 0.362105   
     axis -3.26879e-015 -90 -90   XYZ
    dof rx
    limits (0.0 90.0)
  end
  begin
     id 30
     name rthumb
     direction -0.707107 -6.34851e-011 0.707107   
     length 0.519912   
     axis -90 -45 -2.85299e-015   XYZ
    dof rx rz
    limits (-45.0 45.0)
           (-45.0 45.0)
  end
:hierarchy
  begin
    root lhipjoint rhipjoint lowerback
    lhipjoint lfemur
    lfemur ltibia
    ltibia lfoot
    lfoot ltoes
    rhipjoint rfemur
    rfemur rtibia
    rtibia rfoot
    rfoot rtoes
    lowerback upperback
    upperback thorax
    thorax lowerneck lclavicle rclavicle
    lowerneck upperneck
    upperneck head
    lclavicle lhumerus
    lhumerus lradius
    lradius lwrist
    lwrist lhand lthumb
    lhand lfingers
    rclavicle rhumerus
    rhumerus rradius
    rradius rwrist
    rwrist rhand rthumb
    rhand rfingers
  end

#!OML:ASF I:\Actors\actors\Patient Classification 2\Patient 1\Session 1\actor1.ASF
:FULLY-SPECIFIED
:DEGREES
1
root -0.786243 18.6945 5.84407 1.66573 -0.200837 -1.4745
lowerback 4.13895 0.106423 -0.3986
upperback -2.83091 0.11871 0.0454796
thorax -5.25298 0.0741781 0.260446
lowerneck -7.82808 -1.73275 -2.41837
upperneck 18.763 -2.77086 3.92995
head 7.10879 -1.16554 1.44233
rclavicle 5.01931e-015 2.18663e-015
rhumerus -48.6765 -5.88098 -83.9373
rradius 41.082
rwrist 21.8643
rhand -6.96909 -33.1253
rfingers 7.12502
rthumb 18.9005 -62.227
lclavicle 5.01931e-015 2.18663e-015
lhumerus -44.8583 5.06542 86.9739
lradius 39.2923
lwrist -7.57408
lhand -13.2751 -29.3479
lfingers 7.12502
lthumb 12.828 0.237903
rfemur 7.50833 5.88661 16.0547
rtibia -2.06736e-014
rfoot -19.442 -13.3678
rtoes -7.96419
lfemur -5.01032 -4.00508 -12.5118
ltibia 21.0995
lfoot -21.2535 12.4909
ltoes -56.956
2
root -0.787202 18.6939 5.8465 1.67422 -0.222394 -1.4922
lowerback 4.2729 0.132038 -0.301278
upperback -2.92964 0.15602 -0.00810532
thorax -5.43275 0.0883979 0.146686
lowerneck -7.7099 -1.75203 -2.41181
upperneck 18.8195 -2.81331 3.98748
head 7.10817 -1.18154 1.45734
rclavicle 5.479e-015 2.78299e-015
rhumerus -48.8683 -5.9602 -83.969
rradius 41.1285
rwrist 21.8533
rhand -6.9833 -33.1813
rfingers 7.12502
rthumb 18.8869 -62.2844
lclavicle 5.479e-015 2.78299e-015
lhumerus -45.0163 4.98386 86.9109
lradius 39.3066
lwrist -7.58928
lhand -13.2146 -29.3586
lfingers 7.12502
lthumb 12.8864 0.223591
rfemur 7.51029 5.90767 16.0778
rtibia 9.54166e-015
rfoot -19.4802 -13.3237
rtoes -7.60286
lfemur -5.00318 -4.04313 -12.4928
ltibia 21.0947
lfoot -21.2859 12.5533
ltoes -56.9264
3
root -0.78761 18.6937 5.84904 1.67513 -0.25242 -1.52907
lowerback 4.2867 0.145187 -0.256333
upperback -2.93569 0.176424 -0.0107487
thorax -5.44693 0.096777 0.11687
lowerneck -7.58444 -1.72944 -2.37084
upperneck 18.7446 -2.78774 3.98903
head 7.06012 -1.16838 1.4538
rclavicle -1.13059e-015 -1.19271e-015
rhumerus -48.8985 -5.98372 -83.9826
rradius 41.1551
rwrist 21.8304
rhand -6.97751 -33.2429
rfingers 7.12502
rthumb 18.8925 -62.3455
lclavicle -1.13059e-015 -1.19271e-015
lhumerus -45.0601 4.93878 86.9116
lradius 39.3454
lwrist -7.52618
lhand -13.1833 -29.3198
lfingers 7.12502
lthumb 12.9165 0.26041
rfemur 7.51183 5.93829 16.1222
rtibia -2.22639e-014
rfoot -19.4752 -13.3363
rtoes -7.54029
lfemur -4.98526 -4.05773 -12.4529
ltibia 21.0866
lfoot -21.3186 12.5586
ltoes -56.8858
4
root -0.788142 18.6943 5.852 1.69472 -0.243736 -1.54057
lowerback 4.2833 0.137218 -0.255285
upperback -2.96196 0.166004 -0.00695944
thorax -5.4725 0.0917061 0.12111
lowerneck -7.37322 -1.6886 -2.4772
upperneck 18.5953 -2.746 4.16118
head 6.97634 -1.14497 1.53179
rclavicle -8.60986e-015 2.5842e-015
rhumerus -48.9723 -5.94465 -83.9917
rradius 41.1919
rwrist 21.7874
rhand -6.96984 -33.2078
rfingers 7.12502
rthumb 18.8998 -62.3096
lclavicle -8.60986e-015 2.5842e-015
lhumerus -45.1456 4.93887 86.9177
lradius 39.3874
lwrist -7.45311
lhand -13.2112 -29.25
lfingers 7.12502
lthumb 12.8896 0.33196
rfemur 7.49048 5.92856 16.135
rtibia 9.54166e-015
rfoot -19.4604 -13.3746
rtoes -7.66559
lfemur -5.00255 -4.01935 -12.432
ltibia 21.0896
lfoot -21.3089 12.4974
ltoes -56.886
5
root -0.788885 18.6953 5.85472 1.74261 -0.201059 -1.54138
lowerback 4.24449 0.11043 -0.27854
upperback -2.98492 0.129373 0.00618709
thorax -5.47432 0.0747519 0.151112
lowerneck -7.27735 -1.66916 -2.60507
upperneck 18.532 -2.72916 4.31747
head 6.94184 -1.13436 1.60557
rclavicle 1.15544e-015 -3.97569e-015
rhumerus -49.0116 -5.86759 -84.0097
rradius 41.2222
rwrist 21.7314
rhand -6.95596 -33.1548
rfingers 7.12502
rthumb 18.9132 -62.2553
lclavicle 1.15544e-015 -3.97569e-015
lhumerus -45.1855 5.03496 86.8987
lradius 39.3918
lwrist -7.49525
lhand -13.2706 -29.1824
lfingers 7.12502
lthumb 12.8323 0.403126
rfemur 7.45044 5.88265 16.1351
rtibia 1.74931e-014
rfoot -19.4341 -13.4087
rtoes -7.82871
lfemur -5.05793 -3.99736 -12.4189
ltibia 21.0954
lfoot -21.2786 12.4442
ltoes -56.8883
